<mxfile host="app.diagrams.net" modified="2024-02-08T12:58:54.743Z" agent="Mozilla/5.0 (Windows NT 10.0; Win64; x64) AppleWebKit/537.36 (KHTML, like Gecko) Chrome/121.0.0.0 Safari/537.36" etag="OrYfZPI5BsKEHL6As5Ij" version="23.1.2" type="device">
  <diagram name="Página-1" id="1jTheciG_Sw45dq324Xo">
    <mxGraphModel dx="2477" dy="1260" grid="1" gridSize="10" guides="1" tooltips="1" connect="1" arrows="1" fold="1" page="1" pageScale="1" pageWidth="1169" pageHeight="827" math="0" shadow="0">
      <root>
        <mxCell id="0" />
        <mxCell id="1" parent="0" />
        <mxCell id="nhPygxHx-N_qixdWL71p-1" value="Repositorio&lt;br&gt;Aplicação" style="image;sketch=0;aspect=fixed;html=1;points=[];align=center;fontSize=12;image=img/lib/mscae/Azure_Repos.svg;" vertex="1" parent="1">
          <mxGeometry x="235.73" y="190.17000000000002" width="45" height="50" as="geometry" />
        </mxCell>
        <mxCell id="nhPygxHx-N_qixdWL71p-34" style="edgeStyle=orthogonalEdgeStyle;rounded=0;orthogonalLoop=1;jettySize=auto;html=1;exitX=0;exitY=0.5;exitDx=0;exitDy=0;" edge="1" parent="1" source="nhPygxHx-N_qixdWL71p-6" target="nhPygxHx-N_qixdWL71p-4">
          <mxGeometry relative="1" as="geometry" />
        </mxCell>
        <mxCell id="nhPygxHx-N_qixdWL71p-35" value="Pull" style="edgeLabel;html=1;align=center;verticalAlign=middle;resizable=0;points=[];" vertex="1" connectable="0" parent="nhPygxHx-N_qixdWL71p-34">
          <mxGeometry x="0.1069" y="-2" relative="1" as="geometry">
            <mxPoint as="offset" />
          </mxGeometry>
        </mxCell>
        <mxCell id="nhPygxHx-N_qixdWL71p-4" value="Build&lt;br style=&quot;border-color: var(--border-color);&quot;&gt;da imagem" style="image;sketch=0;aspect=fixed;html=1;points=[];align=center;fontSize=12;image=img/lib/mscae/Azure_Pipelines.svg;" vertex="1" parent="1">
          <mxGeometry x="523.23" y="190.17000000000002" width="50" height="50" as="geometry" />
        </mxCell>
        <mxCell id="nhPygxHx-N_qixdWL71p-6" value="Registry&lt;br&gt;Publicos" style="editableCssRules=.*;html=1;shape=image;verticalLabelPosition=bottom;labelBackgroundColor=#ffffff;verticalAlign=top;aspect=fixed;imageAspect=0;image=data:image/svg+xml,PHN2ZyB4bWxucz0iaHR0cDovL3d3dy53My5vcmcvMjAwMC9zdmciIHhtbG5zOnY9Imh0dHBzOi8vdmVjdGEuaW8vbmFubyIgd2lkdGg9IjM3Ny4xNTkzMDIxNjAyNjMwNSIgaGVpZ2h0PSIzMzYuMTYyNDk5MDAzMzEwOCIgdmlld0JveD0iLTAuMDU4MDAwMDA1NzgxNjUwNTQgMC4xMTI5OTk5OTgwMzMwNDY3MiA5OS43OTAwMDA5MTU1MjczNCA4OC45NDMwMDA3OTM0NTcwMyI+JiN4YTs8c3R5bGUgdHlwZT0idGV4dC9jc3MiPiYjeGE7CS5zdDB7ZmlsbDojNjY5ZGY2O30mI3hhOwkuc3Qxe2ZpbGw6I2FlY2JmYTt9JiN4YTsJLnN0MntmaWxsOiM0Mjg1ZjQ7fSYjeGE7PC9zdHlsZT4mI3hhOwk8cGF0aCBjbGFzcz0ic3QwIiBkPSJNNTMuMjQzIDYyLjA5VjQ3LjA5NGwxMy4yMDEgOC40MTZ2MTUuMDM4em0tMzMuMDIxIDBWNDcuMDk0bDEzLjIwMSA4LjQxNnYxNS4wMzh6bTE2LjUxMS0zMi4yODVWMTQuODFsMTMuMjAxIDguNDE2djE1LjAzOHptNjIuOTk5IDMzLjk2VjI1LjQwM2wtOS41NjItMS44ODR2NDIuMTMxem0tOTkuNzg4IDBWMjUuNDAzbDkuNTYyLTEuODg0djQyLjEzMXoiLz4mI3hhOwk8cGF0aCBjbGFzcz0ic3QxIiBkPSJNNTMuMTg1IDQ3LjA5NGwxMy4yNTgtOC4yODcgMTMuMDE2IDguMjM0LTEzLjAxNiA4LjQ2OXptLTMzLjAyMSAwbDEzLjI1OC04LjI4NyAxMy4wMTYgOC4yMzQtMTMuMDE2IDguNDY5ek0zNi42NzUgMTQuODFsMTMuMjU4LTguMjg3IDEzLjAxNiA4LjIzNC0xMy4wMTYgOC40Njl6bTYzLjA1NiA0OC45NTZ2MTIuMjE3TDc3LjAxIDg5LjA1NVY3Ny43NTJ6bTAtMzguMzYzVjEzLjE4Nkw3Ny4wMS4xMTN2MTEuMzAzek0tLjA1OCA2My43NjZ2MTIuMjE3bDIyLjcyMSAxMy4wNzNWNzcuNzUyem0wLTM4LjM2M1YxMy4xODZMMjIuNjYzLjExM3YxMS4zMDN6Ii8+JiN4YTsJPHBhdGggY2xhc3M9InN0MiIgZD0iTTY2LjQ0NCA3MC41NDdWNTUuNTFsMTMuMDE2LTguNDY5djE1LjR6bS0zMy4wMjEgMFY1NS41MWwxMy4wMTYtOC40Njl2MTUuNHptMTYuNTExLTMyLjI4NVYyMy4yMjVsMTMuMDE2LTguNDY5djE1LjR6bTQ5Ljc5OCAyNS41MDNsLTkuNTYyIDUuODh2LTMuOTk2em0wLTM4LjM2M2wtOS41NjItNS44OHYzLjk5NnpNLS4wNTggNjMuNzY2bDkuNTYyIDUuODh2LTMuOTk2em0wLTM4LjM2M2w5LjU2Mi01Ljg4djMuOTk2eiIvPiYjeGE7PC9zdmc+;" vertex="1" parent="1">
          <mxGeometry x="518.23" y="470.16999999999996" width="40" height="36" as="geometry" />
        </mxCell>
        <mxCell id="nhPygxHx-N_qixdWL71p-8" value="Docker&lt;br&gt;Swarm" style="image;sketch=0;aspect=fixed;html=1;points=[];align=center;fontSize=12;image=img/lib/mscae/Docker.svg;" vertex="1" parent="1">
          <mxGeometry x="1148.23" y="190.17000000000002" width="50" height="41" as="geometry" />
        </mxCell>
        <mxCell id="nhPygxHx-N_qixdWL71p-11" value="user" style="verticalLabelPosition=bottom;html=1;verticalAlign=top;align=center;strokeColor=none;fillColor=#00BEF2;shape=mxgraph.azure.user;" vertex="1" parent="1">
          <mxGeometry x="78.22999999999999" y="270.17" width="47.5" height="50" as="geometry" />
        </mxCell>
        <mxCell id="nhPygxHx-N_qixdWL71p-12" value="Scan&lt;br style=&quot;border-color: var(--border-color);&quot;&gt;da imagem" style="image;sketch=0;aspect=fixed;html=1;points=[];align=center;fontSize=12;image=img/lib/mscae/Azure_Pipelines.svg;" vertex="1" parent="1">
          <mxGeometry x="648.23" y="190.17000000000002" width="50" height="50" as="geometry" />
        </mxCell>
        <mxCell id="nhPygxHx-N_qixdWL71p-36" style="edgeStyle=orthogonalEdgeStyle;rounded=0;orthogonalLoop=1;jettySize=auto;html=1;entryX=1;entryY=0.5;entryDx=0;entryDy=0;" edge="1" parent="1" source="nhPygxHx-N_qixdWL71p-13" target="nhPygxHx-N_qixdWL71p-33">
          <mxGeometry relative="1" as="geometry">
            <Array as="points">
              <mxPoint x="888.23" y="215.17000000000002" />
              <mxPoint x="888.23" y="480.16999999999996" />
              <mxPoint x="868.23" y="480.16999999999996" />
              <mxPoint x="868.23" y="488.16999999999996" />
            </Array>
          </mxGeometry>
        </mxCell>
        <mxCell id="nhPygxHx-N_qixdWL71p-13" value="Push&lt;br&gt;da imagem" style="image;sketch=0;aspect=fixed;html=1;points=[];align=center;fontSize=12;image=img/lib/mscae/Azure_Pipelines.svg;" vertex="1" parent="1">
          <mxGeometry x="798.23" y="190.17000000000002" width="50" height="50" as="geometry" />
        </mxCell>
        <mxCell id="nhPygxHx-N_qixdWL71p-14" value="Pipeline" style="rounded=0;whiteSpace=wrap;html=1;fillColor=none;" vertex="1" parent="1">
          <mxGeometry x="468.23" y="150.17000000000002" width="530" height="20" as="geometry" />
        </mxCell>
        <mxCell id="nhPygxHx-N_qixdWL71p-15" value="Imagem container" style="rounded=0;whiteSpace=wrap;html=1;fillColor=none;" vertex="1" parent="1">
          <mxGeometry x="68.22999999999999" y="150.17000000000002" width="400" height="20" as="geometry" />
        </mxCell>
        <mxCell id="nhPygxHx-N_qixdWL71p-18" value="Infraestrutura" style="rounded=0;whiteSpace=wrap;html=1;fillColor=none;" vertex="1" parent="1">
          <mxGeometry x="998.23" y="150.17000000000002" width="320" height="20" as="geometry" />
        </mxCell>
        <mxCell id="nhPygxHx-N_qixdWL71p-26" style="edgeStyle=orthogonalEdgeStyle;rounded=0;orthogonalLoop=1;jettySize=auto;html=1;" edge="1" parent="1" source="nhPygxHx-N_qixdWL71p-19" target="nhPygxHx-N_qixdWL71p-1">
          <mxGeometry relative="1" as="geometry">
            <Array as="points">
              <mxPoint x="308.23" y="335.16999999999996" />
              <mxPoint x="308.23" y="240.17000000000002" />
            </Array>
          </mxGeometry>
        </mxCell>
        <mxCell id="nhPygxHx-N_qixdWL71p-19" value="Por Ambiente" style="image;aspect=fixed;html=1;points=[];align=center;fontSize=12;image=img/lib/azure2/general/Branch.svg;" vertex="1" parent="1">
          <mxGeometry x="235.73" y="310.16999999999996" width="50" height="50" as="geometry" />
        </mxCell>
        <mxCell id="nhPygxHx-N_qixdWL71p-27" style="edgeStyle=orthogonalEdgeStyle;rounded=0;orthogonalLoop=1;jettySize=auto;html=1;" edge="1" parent="1" source="nhPygxHx-N_qixdWL71p-20" target="nhPygxHx-N_qixdWL71p-19">
          <mxGeometry relative="1" as="geometry">
            <Array as="points">
              <mxPoint x="208.23" y="335.16999999999996" />
            </Array>
          </mxGeometry>
        </mxCell>
        <mxCell id="nhPygxHx-N_qixdWL71p-20" value="Dockerfile" style="whiteSpace=wrap;html=1;shape=mxgraph.basic.document" vertex="1" parent="1">
          <mxGeometry x="178.23" y="410.16999999999996" width="60" height="30" as="geometry" />
        </mxCell>
        <mxCell id="nhPygxHx-N_qixdWL71p-37" style="edgeStyle=orthogonalEdgeStyle;rounded=0;orthogonalLoop=1;jettySize=auto;html=1;exitX=1;exitY=1;exitDx=0;exitDy=0;entryX=-0.024;entryY=0.496;entryDx=0;entryDy=0;entryPerimeter=0;" edge="1" parent="1" source="nhPygxHx-N_qixdWL71p-33" target="nhPygxHx-N_qixdWL71p-21">
          <mxGeometry relative="1" as="geometry">
            <Array as="points">
              <mxPoint x="928.23" y="506.16999999999996" />
              <mxPoint x="928.23" y="215.17000000000002" />
            </Array>
          </mxGeometry>
        </mxCell>
        <mxCell id="nhPygxHx-N_qixdWL71p-38" value="Pull" style="edgeLabel;html=1;align=center;verticalAlign=middle;resizable=0;points=[];" vertex="1" connectable="0" parent="nhPygxHx-N_qixdWL71p-37">
          <mxGeometry x="0.3132" y="-3" relative="1" as="geometry">
            <mxPoint as="offset" />
          </mxGeometry>
        </mxCell>
        <mxCell id="nhPygxHx-N_qixdWL71p-21" value="Deploy&lt;br&gt;da imagem" style="image;sketch=0;aspect=fixed;html=1;points=[];align=center;fontSize=12;image=img/lib/mscae/Azure_Pipelines.svg;" vertex="1" parent="1">
          <mxGeometry x="948.23" y="190.17000000000002" width="50" height="50" as="geometry" />
        </mxCell>
        <mxCell id="nhPygxHx-N_qixdWL71p-32" style="edgeStyle=orthogonalEdgeStyle;rounded=0;orthogonalLoop=1;jettySize=auto;html=1;entryX=-0.069;entryY=0.502;entryDx=0;entryDy=0;entryPerimeter=0;" edge="1" parent="1" source="nhPygxHx-N_qixdWL71p-22" target="nhPygxHx-N_qixdWL71p-13">
          <mxGeometry relative="1" as="geometry">
            <Array as="points">
              <mxPoint x="758.23" y="380.16999999999996" />
              <mxPoint x="758.23" y="215.17000000000002" />
            </Array>
          </mxGeometry>
        </mxCell>
        <mxCell id="nhPygxHx-N_qixdWL71p-22" value="Security" style="html=1;whiteSpace=wrap;strokeColor=none;fillColor=#0079D6;labelPosition=center;verticalLabelPosition=middle;verticalAlign=top;align=center;fontSize=12;outlineConnect=0;spacingTop=-6;fontColor=#FFFFFF;sketch=0;shape=mxgraph.sitemap.security;" vertex="1" parent="1">
          <mxGeometry x="648.23" y="350.17" width="70" height="49.83" as="geometry" />
        </mxCell>
        <mxCell id="nhPygxHx-N_qixdWL71p-23" style="edgeStyle=orthogonalEdgeStyle;rounded=0;orthogonalLoop=1;jettySize=auto;html=1;entryX=-0.04;entryY=0.5;entryDx=0;entryDy=0;entryPerimeter=0;" edge="1" parent="1" source="nhPygxHx-N_qixdWL71p-1" target="nhPygxHx-N_qixdWL71p-4">
          <mxGeometry relative="1" as="geometry" />
        </mxCell>
        <mxCell id="nhPygxHx-N_qixdWL71p-28" value="Aciona pipeline" style="edgeLabel;html=1;align=center;verticalAlign=middle;resizable=0;points=[];" vertex="1" connectable="0" parent="nhPygxHx-N_qixdWL71p-23">
          <mxGeometry x="-0.0786" y="-1" relative="1" as="geometry">
            <mxPoint x="20" y="-1" as="offset" />
          </mxGeometry>
        </mxCell>
        <mxCell id="nhPygxHx-N_qixdWL71p-24" style="edgeStyle=orthogonalEdgeStyle;rounded=0;orthogonalLoop=1;jettySize=auto;html=1;entryX=-0.011;entryY=0.68;entryDx=0;entryDy=0;entryPerimeter=0;" edge="1" parent="1" source="nhPygxHx-N_qixdWL71p-11" target="nhPygxHx-N_qixdWL71p-1">
          <mxGeometry relative="1" as="geometry" />
        </mxCell>
        <mxCell id="nhPygxHx-N_qixdWL71p-25" value="Push" style="edgeLabel;html=1;align=center;verticalAlign=middle;resizable=0;points=[];" vertex="1" connectable="0" parent="nhPygxHx-N_qixdWL71p-24">
          <mxGeometry x="0.0194" y="1" relative="1" as="geometry">
            <mxPoint x="1" as="offset" />
          </mxGeometry>
        </mxCell>
        <mxCell id="nhPygxHx-N_qixdWL71p-30" style="edgeStyle=orthogonalEdgeStyle;rounded=0;orthogonalLoop=1;jettySize=auto;html=1;entryX=0.02;entryY=0.54;entryDx=0;entryDy=0;entryPerimeter=0;" edge="1" parent="1" source="nhPygxHx-N_qixdWL71p-4" target="nhPygxHx-N_qixdWL71p-12">
          <mxGeometry relative="1" as="geometry" />
        </mxCell>
        <mxCell id="nhPygxHx-N_qixdWL71p-31" style="edgeStyle=orthogonalEdgeStyle;rounded=0;orthogonalLoop=1;jettySize=auto;html=1;entryX=0.5;entryY=0;entryDx=0;entryDy=0;entryPerimeter=0;exitX=1.031;exitY=0.56;exitDx=0;exitDy=0;exitPerimeter=0;" edge="1" parent="1" source="nhPygxHx-N_qixdWL71p-12" target="nhPygxHx-N_qixdWL71p-22">
          <mxGeometry relative="1" as="geometry">
            <Array as="points">
              <mxPoint x="718.23" y="218.17000000000002" />
              <mxPoint x="718.23" y="295.16999999999996" />
              <mxPoint x="683.23" y="295.16999999999996" />
            </Array>
          </mxGeometry>
        </mxCell>
        <mxCell id="nhPygxHx-N_qixdWL71p-33" value="Registry&lt;br&gt;Privado" style="editableCssRules=.*;html=1;shape=image;verticalLabelPosition=bottom;labelBackgroundColor=#ffffff;verticalAlign=top;aspect=fixed;imageAspect=0;image=data:image/svg+xml,PHN2ZyB4bWxucz0iaHR0cDovL3d3dy53My5vcmcvMjAwMC9zdmciIHhtbG5zOnY9Imh0dHBzOi8vdmVjdGEuaW8vbmFubyIgd2lkdGg9IjM3Ny4xNTkzMDIxNjAyNjMwNSIgaGVpZ2h0PSIzMzYuMTYyNDk5MDAzMzEwOCIgdmlld0JveD0iLTAuMDU4MDAwMDA1NzgxNjUwNTQgMC4xMTI5OTk5OTgwMzMwNDY3MiA5OS43OTAwMDA5MTU1MjczNCA4OC45NDMwMDA3OTM0NTcwMyI+JiN4YTs8c3R5bGUgdHlwZT0idGV4dC9jc3MiPiYjeGE7CS5zdDB7ZmlsbDojNjY5ZGY2O30mI3hhOwkuc3Qxe2ZpbGw6I2FlY2JmYTt9JiN4YTsJLnN0MntmaWxsOiM0Mjg1ZjQ7fSYjeGE7PC9zdHlsZT4mI3hhOwk8cGF0aCBjbGFzcz0ic3QwIiBkPSJNNTMuMjQzIDYyLjA5VjQ3LjA5NGwxMy4yMDEgOC40MTZ2MTUuMDM4em0tMzMuMDIxIDBWNDcuMDk0bDEzLjIwMSA4LjQxNnYxNS4wMzh6bTE2LjUxMS0zMi4yODVWMTQuODFsMTMuMjAxIDguNDE2djE1LjAzOHptNjIuOTk5IDMzLjk2VjI1LjQwM2wtOS41NjItMS44ODR2NDIuMTMxem0tOTkuNzg4IDBWMjUuNDAzbDkuNTYyLTEuODg0djQyLjEzMXoiLz4mI3hhOwk8cGF0aCBjbGFzcz0ic3QxIiBkPSJNNTMuMTg1IDQ3LjA5NGwxMy4yNTgtOC4yODcgMTMuMDE2IDguMjM0LTEzLjAxNiA4LjQ2OXptLTMzLjAyMSAwbDEzLjI1OC04LjI4NyAxMy4wMTYgOC4yMzQtMTMuMDE2IDguNDY5ek0zNi42NzUgMTQuODFsMTMuMjU4LTguMjg3IDEzLjAxNiA4LjIzNC0xMy4wMTYgOC40Njl6bTYzLjA1NiA0OC45NTZ2MTIuMjE3TDc3LjAxIDg5LjA1NVY3Ny43NTJ6bTAtMzguMzYzVjEzLjE4Nkw3Ny4wMS4xMTN2MTEuMzAzek0tLjA1OCA2My43NjZ2MTIuMjE3bDIyLjcyMSAxMy4wNzNWNzcuNzUyem0wLTM4LjM2M1YxMy4xODZMMjIuNjYzLjExM3YxMS4zMDN6Ii8+JiN4YTsJPHBhdGggY2xhc3M9InN0MiIgZD0iTTY2LjQ0NCA3MC41NDdWNTUuNTFsMTMuMDE2LTguNDY5djE1LjR6bS0zMy4wMjEgMFY1NS41MWwxMy4wMTYtOC40Njl2MTUuNHptMTYuNTExLTMyLjI4NVYyMy4yMjVsMTMuMDE2LTguNDY5djE1LjR6bTQ5Ljc5OCAyNS41MDNsLTkuNTYyIDUuODh2LTMuOTk2em0wLTM4LjM2M2wtOS41NjItNS44OHYzLjk5NnpNLS4wNTggNjMuNzY2bDkuNTYyIDUuODh2LTMuOTk2em0wLTM4LjM2M2w5LjU2Mi01Ljg4djMuOTk2eiIvPiYjeGE7PC9zdmc+;" vertex="1" parent="1">
          <mxGeometry x="818.23" y="470.16999999999996" width="40" height="36" as="geometry" />
        </mxCell>
        <mxCell id="nhPygxHx-N_qixdWL71p-39" style="edgeStyle=orthogonalEdgeStyle;rounded=0;orthogonalLoop=1;jettySize=auto;html=1;entryX=0;entryY=0.634;entryDx=0;entryDy=0;entryPerimeter=0;" edge="1" parent="1" source="nhPygxHx-N_qixdWL71p-21" target="nhPygxHx-N_qixdWL71p-8">
          <mxGeometry relative="1" as="geometry" />
        </mxCell>
        <mxCell id="nhPygxHx-N_qixdWL71p-40" value="1" style="rounded=0;whiteSpace=wrap;html=1;labelBackgroundColor=none;fontFamily=Helvetica;fontSize=18;fillColor=#004C99;strokeColor=#B3B3B3;fontColor=#FFFFFF;fontStyle=1;strokeWidth=2;" vertex="1" parent="1">
          <mxGeometry x="260.7299999999999" y="120" width="20" height="20" as="geometry" />
        </mxCell>
        <mxCell id="nhPygxHx-N_qixdWL71p-41" value="2" style="rounded=0;whiteSpace=wrap;html=1;labelBackgroundColor=none;fontFamily=Helvetica;fontSize=18;fillColor=#004C99;strokeColor=#B3B3B3;fontColor=#FFFFFF;fontStyle=1;strokeWidth=2;" vertex="1" parent="1">
          <mxGeometry x="708.2299999999999" y="120" width="20" height="20" as="geometry" />
        </mxCell>
        <mxCell id="nhPygxHx-N_qixdWL71p-42" value="4" style="rounded=0;whiteSpace=wrap;html=1;labelBackgroundColor=none;fontFamily=Helvetica;fontSize=18;fillColor=#004C99;strokeColor=#B3B3B3;fontColor=#FFFFFF;fontStyle=1;strokeWidth=2;" vertex="1" parent="1">
          <mxGeometry x="1148.23" y="120" width="20" height="20" as="geometry" />
        </mxCell>
        <mxCell id="nhPygxHx-N_qixdWL71p-45" value="Arquitertura Devops&lt;br&gt;Visão da criação de imagem das aplicações" style="text;align=right;html=1;fontColor=#2F5597;fontStyle=1;fontSize=18;labelBackgroundColor=none;" vertex="1" parent="1">
          <mxGeometry x="1506.23" y="54" width="247" height="25" as="geometry" />
        </mxCell>
        <mxCell id="nhPygxHx-N_qixdWL71p-46" value="&lt;div style=&quot;&quot;&gt;&lt;span style=&quot;background-color: initial;&quot;&gt;DTI&lt;/span&gt;&lt;/div&gt;&lt;div style=&quot;&quot;&gt;&lt;span style=&quot;background-color: initial;&quot;&gt;Diretoria de TI&lt;/span&gt;&lt;/div&gt;" style="text;html=1;align=left;fontColor=#2F5597;fontSize=18;" vertex="1" parent="1">
          <mxGeometry x="90.00000000000003" y="53" width="267" height="26" as="geometry" />
        </mxCell>
        <mxCell id="nhPygxHx-N_qixdWL71p-47" value="&lt;font style=&quot;font-size: 18px;&quot;&gt;&lt;font style=&quot;font-size: 18px;&quot;&gt;#interna&lt;/font&gt;&lt;/font&gt;" style="text;html=1;align=right;fontColor=#000000;fontSize=18;" vertex="1" parent="1">
          <mxGeometry x="1701.0000000000005" y="36.5" width="50" height="26" as="geometry" />
        </mxCell>
        <mxCell id="nhPygxHx-N_qixdWL71p-49" value="" style="dashed=0;outlineConnect=0;html=1;align=center;labelPosition=center;verticalLabelPosition=bottom;verticalAlign=top;shape=mxgraph.weblogos.apple_classic" vertex="1" parent="1">
          <mxGeometry x="20" y="46" width="40" height="40" as="geometry" />
        </mxCell>
        <mxCell id="nhPygxHx-N_qixdWL71p-50" value="3" style="rounded=0;whiteSpace=wrap;html=1;labelBackgroundColor=none;fontFamily=Helvetica;fontSize=18;fillColor=#004C99;strokeColor=#B3B3B3;fontColor=#FFFFFF;fontStyle=1;strokeWidth=2;" vertex="1" parent="1">
          <mxGeometry x="708.2299999999999" y="420.17" width="20" height="20" as="geometry" />
        </mxCell>
        <mxCell id="nhPygxHx-N_qixdWL71p-51" value="" style="rounded=0;whiteSpace=wrap;html=1;dashed=1;labelBackgroundColor=none;fontFamily=Helvetica;fontSize=20;fontColor=#333333;strokeColor=none;fillColor=#f5f5f5;strokeWidth=5;" vertex="1" parent="1">
          <mxGeometry x="1350" y="150.17" width="410" height="609.83" as="geometry" />
        </mxCell>
        <mxCell id="nhPygxHx-N_qixdWL71p-52" value="&lt;font style=&quot;font-size: 20px;&quot;&gt;Times acessam os respositórios, para criação ou alteração da imagem da aplicação, padronizada por ambiente&lt;br style=&quot;font-size: 20px;&quot;&gt;&lt;/font&gt;" style="text;html=1;strokeColor=none;fillColor=none;align=left;verticalAlign=middle;whiteSpace=wrap;rounded=0;fontSize=20;opacity=70;" vertex="1" parent="1">
          <mxGeometry x="1395" y="179.9999999999999" width="358.23" height="40.31" as="geometry" />
        </mxCell>
        <mxCell id="nhPygxHx-N_qixdWL71p-54" value="1" style="rounded=0;whiteSpace=wrap;html=1;labelBackgroundColor=none;fontFamily=Helvetica;fontSize=18;fillColor=#004C99;strokeColor=#B3B3B3;fontColor=#FFFFFF;fontStyle=1;strokeWidth=2;" vertex="1" parent="1">
          <mxGeometry x="1360" y="190.15" width="20" height="20" as="geometry" />
        </mxCell>
        <mxCell id="nhPygxHx-N_qixdWL71p-55" value="&lt;font style=&quot;font-size: 20px;&quot;&gt;Pipeline de construção da imagem da aplicação e entrega no ambiente configurado&lt;br style=&quot;font-size: 20px;&quot;&gt;&lt;/font&gt;" style="text;html=1;strokeColor=none;fillColor=none;align=left;verticalAlign=middle;whiteSpace=wrap;rounded=0;fontSize=20;opacity=70;" vertex="1" parent="1">
          <mxGeometry x="1395" y="275.0099999999999" width="358.23" height="40.31" as="geometry" />
        </mxCell>
        <mxCell id="nhPygxHx-N_qixdWL71p-56" value="2" style="rounded=0;whiteSpace=wrap;html=1;labelBackgroundColor=none;fontFamily=Helvetica;fontSize=18;fillColor=#004C99;strokeColor=#B3B3B3;fontColor=#FFFFFF;fontStyle=1;strokeWidth=2;" vertex="1" parent="1">
          <mxGeometry x="1360" y="285.16" width="20" height="20" as="geometry" />
        </mxCell>
        <mxCell id="nhPygxHx-N_qixdWL71p-57" value="&lt;font style=&quot;font-size: 20px;&quot;&gt;Execução de scan na imagem, informando as vulnerabilidades encontradas, para correção e ou alertas.&lt;br style=&quot;font-size: 20px;&quot;&gt;&lt;/font&gt;" style="text;html=1;strokeColor=none;fillColor=none;align=left;verticalAlign=middle;whiteSpace=wrap;rounded=0;fontSize=20;opacity=70;" vertex="1" parent="1">
          <mxGeometry x="1400" y="379.85999999999984" width="358.23" height="40.31" as="geometry" />
        </mxCell>
        <mxCell id="nhPygxHx-N_qixdWL71p-58" value="3" style="rounded=0;whiteSpace=wrap;html=1;labelBackgroundColor=none;fontFamily=Helvetica;fontSize=18;fillColor=#004C99;strokeColor=#B3B3B3;fontColor=#FFFFFF;fontStyle=1;strokeWidth=2;" vertex="1" parent="1">
          <mxGeometry x="1360" y="394" width="20" height="20" as="geometry" />
        </mxCell>
        <mxCell id="nhPygxHx-N_qixdWL71p-59" value="&lt;font style=&quot;font-size: 20px;&quot;&gt;Ambiente de infraestrutura, onde será execuda a aplicação&lt;br style=&quot;font-size: 20px;&quot;&gt;&lt;/font&gt;" style="text;html=1;strokeColor=none;fillColor=none;align=left;verticalAlign=middle;whiteSpace=wrap;rounded=0;fontSize=20;opacity=70;" vertex="1" parent="1">
          <mxGeometry x="1400" y="470.16999999999985" width="358.23" height="40.31" as="geometry" />
        </mxCell>
        <mxCell id="nhPygxHx-N_qixdWL71p-60" value="3" style="rounded=0;whiteSpace=wrap;html=1;labelBackgroundColor=none;fontFamily=Helvetica;fontSize=18;fillColor=#004C99;strokeColor=#B3B3B3;fontColor=#FFFFFF;fontStyle=1;strokeWidth=2;" vertex="1" parent="1">
          <mxGeometry x="1360" y="484.31" width="20" height="20" as="geometry" />
        </mxCell>
        <mxCell id="nhPygxHx-N_qixdWL71p-61" value="&lt;font style=&quot;font-size: 20px;&quot;&gt;&lt;b style=&quot;font-size: 20px;&quot;&gt;Responsável pela Arquitetura:&lt;br style=&quot;font-size: 20px;&quot;&gt;&lt;/b&gt;Marcelo Verissimo Moraes&lt;br style=&quot;font-size: 20px;&quot;&gt;&lt;br style=&quot;font-size: 20px;&quot;&gt;&lt;b style=&quot;font-size: 20px;&quot;&gt;Atualizado em:&lt;/b&gt;&amp;nbsp;02/2024 - versão 1&lt;br style=&quot;font-size: 20px;&quot;&gt;&lt;/font&gt;" style="text;html=1;strokeColor=none;fillColor=none;align=left;verticalAlign=middle;whiteSpace=wrap;rounded=0;dashed=1;labelBackgroundColor=none;fontFamily=Helvetica;fontSize=20;fontColor=#000000;" vertex="1" parent="1">
          <mxGeometry x="1400" y="690" width="470" height="38" as="geometry" />
        </mxCell>
      </root>
    </mxGraphModel>
  </diagram>
</mxfile>
